<svg width="43" height="30" viewBox="0 0 43 30" fill="none" xmlns="http://www.w3.org/2000/svg">
<path d="M20.0909 19.4048C20.0909 19.6851 19.9905 19.9257 19.7898 20.1264C19.589 20.3272 19.3485 20.4276 19.0682 20.4276C18.7879 20.4276 18.5473 20.3272 18.3466 20.1264C18.1458 19.9257 18.0455 19.6851 18.0455 19.4048C18.0455 19.1245 18.1458 18.884 18.3466 18.6832C18.5473 18.4825 18.7879 18.3821 19.0682 18.3821C19.2538 18.3821 19.4242 18.4295 19.5795 18.5241C19.7348 18.6151 19.8598 18.7382 19.9545 18.8935C20.0455 19.045 20.0909 19.2154 20.0909 19.4048ZM20.0909 14.9986C20.0909 15.2789 19.9905 15.5194 19.7898 15.7202C19.589 15.9209 19.3485 16.0213 19.0682 16.0213C18.7879 16.0213 18.5473 15.9209 18.3466 15.7202C18.1458 15.5194 18.0455 15.2789 18.0455 14.9986C18.0455 14.7183 18.1458 14.4777 18.3466 14.277C18.5473 14.0762 18.7879 13.9759 19.0682 13.9759C19.2538 13.9759 19.4242 14.0232 19.5795 14.1179C19.7348 14.2088 19.8598 14.3319 19.9545 14.4872C20.0455 14.6387 20.0909 14.8092 20.0909 14.9986ZM20.0909 10.5923C20.0909 10.8726 19.9905 11.1132 19.7898 11.3139C19.589 11.5147 19.3485 11.6151 19.0682 11.6151C18.7879 11.6151 18.5473 11.5147 18.3466 11.3139C18.1458 11.1132 18.0455 10.8726 18.0455 10.5923C18.0455 10.312 18.1458 10.0715 18.3466 9.87074C18.5473 9.66998 18.7879 9.5696 19.0682 9.5696C19.2538 9.5696 19.4242 9.61695 19.5795 9.71165C19.7348 9.80256 19.8598 9.92566 19.9545 10.081C20.0455 10.2325 20.0909 10.4029 20.0909 10.5923Z" fill="#818181"/>
<path d="M15.0909 19.4048C15.0909 19.6851 14.9905 19.9257 14.7898 20.1264C14.589 20.3272 14.3485 20.4276 14.0682 20.4276C13.7879 20.4276 13.5473 20.3272 13.3466 20.1264C13.1458 19.9257 13.0455 19.6851 13.0455 19.4048C13.0455 19.1245 13.1458 18.884 13.3466 18.6832C13.5473 18.4825 13.7879 18.3821 14.0682 18.3821C14.2538 18.3821 14.4242 18.4295 14.5795 18.5241C14.7348 18.6151 14.8598 18.7382 14.9545 18.8935C15.0455 19.045 15.0909 19.2154 15.0909 19.4048ZM15.0909 14.9986C15.0909 15.2789 14.9905 15.5194 14.7898 15.7202C14.589 15.9209 14.3485 16.0213 14.0682 16.0213C13.7879 16.0213 13.5473 15.9209 13.3466 15.7202C13.1458 15.5194 13.0455 15.2789 13.0455 14.9986C13.0455 14.7183 13.1458 14.4777 13.3466 14.277C13.5473 14.0762 13.7879 13.9759 14.0682 13.9759C14.2538 13.9759 14.4242 14.0232 14.5795 14.1179C14.7348 14.2088 14.8598 14.3319 14.9545 14.4872C15.0455 14.6387 15.0909 14.8092 15.0909 14.9986ZM15.0909 10.5923C15.0909 10.8726 14.9905 11.1132 14.7898 11.3139C14.589 11.5147 14.3485 11.6151 14.0682 11.6151C13.7879 11.6151 13.5473 11.5147 13.3466 11.3139C13.1458 11.1132 13.0455 10.8726 13.0455 10.5923C13.0455 10.312 13.1458 10.0715 13.3466 9.87074C13.5473 9.66998 13.7879 9.5696 14.0682 9.5696C14.2538 9.5696 14.4242 9.61695 14.5795 9.71165C14.7348 9.80256 14.8598 9.92566 14.9545 10.081C15.0455 10.2325 15.0909 10.4029 15.0909 10.5923Z" fill="#818181"/>
</svg>
