<svg width="1019" height="820" viewBox="0 0 1019 820" fill="none" xmlns="http://www.w3.org/2000/svg">
<path d="M483.367 1.13757C422.433 7.67091 369.233 38.2042 332.567 87.4042C309.633 118.204 295.633 153.138 291.5 190.338C290.033 203.538 290.433 238.471 292.167 246.338C292.567 248.204 293.5 253.004 294.3 257.004C301.9 298.204 333.767 354.204 386.433 419.004C417.367 457.138 440.033 478.738 440.033 478.738C440.033 478.738 490.3 532.471 496.567 535.138C502.567 537.671 508.967 537.404 517.367 534.338C523.767 531.938 527.9 528.338 550.433 505.271C582.967 472.204 604.167 444.871 604.167 444.871L604.7 444.204C604.7 444.204 640.967 403.538 661.767 373.671C694.967 325.938 711.5 291.138 719.233 252.338C722.567 235.538 722.567 191.938 719.1 175.671C711.767 140.071 696.3 106.471 675.233 80.3376C665.9 68.7376 645.367 49.4042 632.833 40.4709C620.567 31.6709 598.567 19.8042 584.967 14.6042C553.633 2.60425 515.767 -2.46243 483.367 1.13757ZM529.633 65.5376C582.033 73.5376 629.633 112.071 648.3 161.671C654.567 178.071 657.1 190.338 657.9 207.671C659.233 236.204 654.433 259.804 642.3 284.338C616.433 336.604 564.7 369.004 507.1 369.004C464.567 369.004 429.367 354.471 399.9 324.871C369.9 294.738 354.3 257.138 354.3 215.004C354.3 123.138 438.3 51.6709 529.633 65.5376Z" fill="#FF914B"/>
<path d="M479.366 160.775C473.633 162.375 469.766 167.042 458.699 185.842C451.099 198.642 448.166 202.642 444.833 203.975C442.566 204.909 432.033 206.109 421.366 206.642C401.899 207.709 395.766 209.175 394.166 213.309C392.833 216.909 393.233 228.242 394.833 231.842C397.499 237.575 401.633 238.242 430.3 237.709C464.166 237.175 463.766 237.309 477.899 214.775L485.233 203.042L488.699 210.775C490.699 215.175 495.766 226.775 500.166 236.642C514.433 269.042 517.766 273.175 528.7 273.042C534.833 272.909 539.233 267.042 539.233 267.042L540.033 266.242C540.033 266.242 546.566 257.975 552.566 247.442C558.566 236.775 564.966 227.042 567.099 225.442C570.433 223.042 573.366 222.642 592.699 221.975C617.233 221.175 618.033 220.909 620.033 211.842C621.366 205.842 619.899 197.175 616.833 194.242C615.233 192.509 609.766 191.842 592.433 190.909C553.899 188.909 549.899 190.909 534.033 219.709C531.233 224.775 528.566 228.375 528.033 227.709C527.366 227.175 523.499 218.909 519.366 209.442C508.433 184.509 500.299 168.509 497.099 165.042C495.499 163.309 492.033 161.442 489.499 160.642C484.033 159.175 484.699 159.175 479.366 160.775Z" fill="#FF914B"/>
<path d="M165.067 605.971C158.133 609.704 154.267 615.704 153.733 623.838C153.067 632.104 155.867 638.104 163.067 643.838C167.6 647.438 169.333 647.971 176.4 647.971C190.933 647.971 200.533 639.038 200.133 625.838C200 615.838 194.8 607.971 186.267 604.771C180.4 602.504 170.533 603.171 165.067 605.971Z" fill="black"/>
<path d="M889.6 610.238C888.4 611.438 888 635.704 888 711.304C888 799.171 888.267 811.038 890.133 813.704C892 816.371 893.2 816.638 906.933 816.638C927.467 816.638 926.667 817.704 925.733 792.104L924.933 771.971L931.867 763.971C940.4 754.238 941.733 753.438 944.267 756.371C946.933 759.571 965.467 791.571 970.667 801.971C978 816.771 977.733 816.638 997.333 816.638C1017.6 816.638 1020.13 815.571 1017.33 808.504C1014.93 802.504 983.6 744.771 977.067 734.504C974.267 729.971 972 725.438 972 724.371C972 723.171 981.333 711.971 992.667 699.304C1019.47 669.304 1019.73 667.304 995.867 667.304C988.133 667.304 979.733 667.704 977.333 668.104C974 668.771 968.4 674.104 950.4 693.838C938 707.438 927.333 718.771 926.8 719.038C926.267 719.171 926 695.438 926.133 666.371C926.4 634.771 926 612.371 925.2 611.038C924 608.904 921.867 608.638 907.6 608.638C896.667 608.638 890.667 609.171 889.6 610.238Z" fill="black"/>
<path d="M1.6 612.904C0.4 614.104 0 638.371 0 714.238C0 811.438 0 813.971 2.53333 815.304C4 815.971 12 816.638 20.4 816.638C32.9333 816.638 36 816.238 37.4667 814.371C38.9333 812.771 39.4667 803.438 40 772.771L40.6667 733.304L78.1333 732.638C107.2 732.104 116.133 731.571 117.733 730.104C119.6 728.638 120 725.704 120 714.638C120 705.304 119.467 700.504 118.4 699.571C117.333 698.904 101.467 697.971 80.6667 697.571C60.9333 697.171 43.6 696.504 42.4 695.971C40.2667 695.171 40 692.638 40 671.171C40 647.304 40 647.304 43.0667 647.171C44.6667 647.038 66.1333 646.504 90.6667 646.104L135.333 645.304L135.733 630.104C136 620.104 135.6 614.371 134.533 613.171C132.4 610.638 4.13333 610.371 1.6 612.904Z" fill="black"/>
<path d="M322.267 613.038C320.267 614.504 320 616.771 320.267 629.971L320.667 645.304L346.8 645.971C366.133 646.504 373.467 647.171 375.2 648.504C377.067 650.104 377.333 657.838 377.333 731.304C377.333 807.971 377.467 812.371 379.733 814.371C381.733 816.238 385.067 816.638 396.533 816.638C404.4 816.638 412 815.971 413.467 815.304C415.867 813.971 416 811.571 416 732.104C416 657.704 416.133 650.104 418.267 648.504C419.867 647.171 427.2 646.504 447.2 645.971L474 645.304L474.4 630.771C474.667 618.638 474.4 615.838 472.533 613.838C470.4 611.438 466.8 611.304 397.333 611.304C340.8 611.304 324 611.704 322.267 613.038Z" fill="black"/>
<path d="M244.267 630.238C243.2 631.304 242.667 636.904 242.667 647.304C242.667 667.038 242.267 667.704 229.067 668.638L219.333 669.304L218.933 683.704L218.533 697.971L222 699.304C224 700.104 229.067 700.638 233.333 700.638C239.067 700.638 241.2 701.171 241.867 702.771C242.267 703.971 242.667 723.304 242.667 745.838C242.667 792.638 243.2 796.371 252 806.371C259.6 815.038 265.467 816.638 290.933 817.571L311.867 818.371L313.333 814.638C315.333 809.438 313.6 790.638 310.8 788.104C309.467 786.904 305.333 786.104 300 785.838C288.933 785.438 283.867 784.104 281.067 780.504C278.933 777.971 278.667 773.971 278.667 740.771C278.667 713.838 279.067 703.438 280.267 702.238C281.333 701.171 286.267 700.638 293.733 700.638C310.8 700.638 310.667 700.771 310.667 683.304V668.638H298.667C285.733 668.638 280.267 667.038 279.333 662.771C278.933 661.171 278.533 653.038 278.267 644.638L278 629.304L262 628.904C250.667 628.638 245.467 629.038 244.267 630.238Z" fill="black"/>
<path d="M621.467 667.571C602.267 672.238 584.667 684.504 583.2 694.104C582.933 696.638 583.067 699.304 583.6 700.104C584.933 701.971 605.6 711.304 608.267 711.304C609.467 711.304 614.267 708.238 619.067 704.638C628.8 697.038 633.467 695.304 644 695.304C659.333 695.304 669.2 701.171 671.867 711.838C674.4 722.238 674.8 721.971 661.067 721.971C647.067 721.971 624.267 724.904 613.333 728.104C595.6 733.304 583.733 742.904 578.667 756.104C576.267 762.638 575.867 765.971 576.267 775.971C576.667 786.504 577.333 788.904 581.067 795.438C589.6 810.371 607.467 819.304 628.8 819.304C647.467 819.304 663.333 812.371 668.667 801.838C669.867 799.704 671.2 797.971 671.733 797.971C672.267 797.971 672.8 801.438 673.067 805.704C673.333 810.904 674.133 813.838 675.6 814.904C678.4 817.038 703.067 817.304 706.8 815.304C709.2 813.971 709.333 811.971 709.333 764.104C709.333 733.971 708.8 711.304 707.867 706.504C704.667 689.171 694.933 676.771 680.267 671.304C662 664.504 639.867 663.038 621.467 667.571ZM673.333 758.904C673.333 768.104 671.6 771.838 663.6 779.571C654.8 787.971 633.333 792.371 624.133 787.704C618.667 784.771 614.667 777.838 614.667 770.904C614.667 760.904 626.133 753.838 645.333 751.704C649.333 751.304 652.933 750.771 653.2 750.504C653.467 750.238 658.133 749.971 663.6 749.971H673.333V758.904Z" fill="black"/>
<path d="M788.4 665.971C767.067 668.904 749.867 681.304 740 700.504C733.067 714.371 731.2 723.704 731.6 744.638C731.867 768.238 738.133 785.304 751.467 799.304C764.8 813.304 778.8 818.504 803.333 818.638C816.667 818.638 820.8 818.104 828.4 815.571C838 812.238 850.4 803.838 856.533 796.504C862.4 789.571 868.133 776.771 866.667 773.838C865.467 771.838 839.467 761.971 835.067 761.971C834.133 761.971 832.133 764.638 830.533 767.971C827.6 774.104 819.733 781.438 813.067 784.238C806.933 786.904 792 785.704 786.267 782.104C775.867 775.704 770.667 762.104 770.667 741.304C770.667 722.238 774.933 711.571 785.733 702.771C790.267 699.171 792.133 698.638 800.533 698.238C808.4 697.838 811.333 698.238 815.6 700.371C821.2 703.304 827.2 709.571 830.933 716.504C832.267 718.771 834.267 720.638 835.733 720.638C839.733 720.638 864.4 710.504 865.867 708.371C869.467 702.638 851.733 679.971 838.267 673.171C825.067 666.371 805.6 663.571 788.4 665.971Z" fill="black"/>
<path d="M546 667.171C536.8 669.571 527.867 674.504 522 680.771C518.667 684.371 515.6 687.304 515.333 687.304C514.933 687.304 514.667 683.704 514.667 679.438C514.667 668.504 512.8 667.304 495.733 667.304C475.467 667.304 477.333 659.571 477.333 741.704C477.333 801.971 477.6 811.038 479.467 813.704C481.333 816.371 482.533 816.638 496.133 816.638C517.467 816.638 516 819.704 516 774.238C516 735.838 516.4 731.438 521.2 721.438C526.667 710.238 538.267 703.438 555.067 701.438C560.533 700.771 563.067 699.704 564 697.971C565.867 694.371 565.733 669.571 563.733 667.571C562 665.838 552.4 665.704 546 667.171Z" fill="black"/>
<path d="M162.933 669.438L160 671.438V742.504C160 795.838 160.4 813.838 161.6 815.038C162.667 816.104 168.4 816.638 178.667 816.638C188.933 816.638 194.667 816.104 195.733 815.038C196.933 813.838 197.333 795.704 197.333 741.704C197.333 672.238 197.2 669.971 194.8 668.638C190.533 666.371 166.4 666.904 162.933 669.438Z" fill="black"/>
</svg>
