<svg xmlns="http://www.w3.org/2000/svg" xmlns:xlink="http://www.w3.org/1999/xlink" version="1.1" x="0px" y="0px" viewBox="0 0 32 40" enable-background="new 0 0 32 32" xml:space="preserve"><g><path d="M29.707,8.063l-5.77-5.77c-0.391-0.391-1.023-0.391-1.414,0l-19.23,19.23C3.105,21.711,3,21.965,3,22.23V28   c0,0.553,0.447,1,1,1h5.77c0.266,0,0.52-0.105,0.707-0.293l19.23-19.23C30.098,9.086,30.098,8.453,29.707,8.063z M9.355,27H5   v-4.355L19.615,8.029l4.355,4.355L9.355,27z M25.385,10.971l-4.355-4.355l2.201-2.201l4.355,4.355L25.385,10.971z"/></g><text x="0" y="47" fill="#000000" font-size="5px" font-weight="bold" font-family="'Helvetica Neue', Helvetica, Arial-Unicode, Arial, Sans-serif">Created by Celcius Creative</text><text x="0" y="52" fill="#000000" font-size="5px" font-weight="bold" font-family="'Helvetica Neue', Helvetica, Arial-Unicode, Arial, Sans-serif">from the Noun Project</text></svg>