<svg width="432" height="537" viewBox="0 0 432 537" fill="none" xmlns="http://www.w3.org/2000/svg">
<path d="M193.367 1.13757C132.433 7.67091 79.2333 38.2042 42.5667 87.4042C19.6333 118.204 5.63333 153.138 1.5 190.338C0.0333333 203.538 0.433333 238.471 2.16667 246.338C2.56667 248.204 3.5 253.004 4.3 257.004C11.9 298.204 43.7667 354.204 96.4333 419.004C127.367 457.138 150.033 478.738 150.033 478.738C150.033 478.738 200.3 532.471 206.567 535.138C212.567 537.671 218.967 537.404 227.367 534.338C233.767 531.938 237.9 528.338 260.433 505.271C292.967 472.204 314.167 444.871 314.167 444.871L314.7 444.204C314.7 444.204 350.967 403.538 371.767 373.671C404.967 325.938 421.5 291.138 429.233 252.338C432.567 235.538 432.567 191.938 429.1 175.671C421.767 140.071 406.3 106.471 385.233 80.3376C375.9 68.7376 355.367 49.4042 342.833 40.4709C330.567 31.6709 308.567 19.8042 294.967 14.6042C263.633 2.60425 225.767 -2.46243 193.367 1.13757ZM239.633 65.5376C292.033 73.5376 339.633 112.071 358.3 161.671C364.567 178.071 367.1 190.338 367.9 207.671C369.233 236.204 364.433 259.804 352.3 284.338C326.433 336.604 274.7 369.004 217.1 369.004C174.567 369.004 139.367 354.471 109.9 324.871C79.9 294.738 64.3 257.138 64.3 215.004C64.3 123.138 148.3 51.6709 239.633 65.5376Z" fill="#FF914B"/>
<path d="M189.366 160.775C183.633 162.375 179.766 167.042 168.699 185.842C161.099 198.642 158.166 202.642 154.833 203.975C152.566 204.909 142.033 206.109 131.366 206.642C111.899 207.709 105.766 209.175 104.166 213.309C102.833 216.909 103.233 228.242 104.833 231.842C107.499 237.575 111.633 238.242 140.3 237.709C174.166 237.175 173.766 237.309 187.899 214.775L195.233 203.042L198.699 210.775C200.699 215.175 205.766 226.775 210.166 236.642C224.433 269.042 227.766 273.175 238.7 273.042C244.833 272.909 249.233 267.042 249.233 267.042L250.033 266.242C250.033 266.242 256.566 257.975 262.566 247.442C268.566 236.775 274.966 227.042 277.099 225.442C280.433 223.042 283.366 222.642 302.699 221.975C327.233 221.175 328.033 220.909 330.033 211.842C331.366 205.842 329.899 197.175 326.833 194.242C325.233 192.509 319.766 191.842 302.433 190.909C263.899 188.909 259.899 190.909 244.033 219.709C241.233 224.775 238.566 228.375 238.033 227.709C237.366 227.175 233.499 218.909 229.366 209.442C218.433 184.509 210.299 168.509 207.099 165.042C205.499 163.309 202.033 161.442 199.499 160.642C194.033 159.175 194.699 159.175 189.366 160.775Z" fill="#FF914B"/>
</svg>
